<svg width="64" height="64" viewBox="0 0 64 64" fill="none" xmlns="http://www.w3.org/2000/svg">
  <!-- Background Circle -->
  <circle cx="32" cy="32" r="30" fill="#4F46E5"/>

  <!-- Robot Head -->
  <rect x="20" y="22" width="24" height="20" rx="3" fill="white"/>

  <!-- Eyes -->
  <circle cx="26" cy="30" r="2" fill="#4F46E5"/>
  <circle cx="38" cy="30" r="2" fill="#4F46E5"/>

  <!-- Antenna -->
  <line x1="32" y1="22" x2="32" y2="16" stroke="white" stroke-width="2" stroke-linecap="round"/>
  <circle cx="32" cy="14" r="2" fill="#10B981"/>

  <!-- Mouth/Chat Indicator -->
  <path d="M 26 36 Q 32 40 38 36" stroke="#4F46E5" stroke-width="2" stroke-linecap="round" fill="none"/>

  <!-- Sparkle Effect (AI indicator) -->
  <path d="M 48 20 L 49 22 L 51 23 L 49 24 L 48 26 L 47 24 L 45 23 L 47 22 Z" fill="#FCD34D"/>
  <path d="M 14 38 L 15 39.5 L 16.5 40.5 L 15 41.5 L 14 43 L 13 41.5 L 11.5 40.5 L 13 39.5 Z" fill="#FCD34D"/>
</svg>
